<?xml version="1.0" encoding="UTF-8"?>
<svg id="ic_piv" data-name="ic piv" xmlns="http://www.w3.org/2000/svg" version="1.1" viewBox="0 0 240 240">
  <defs>
    <style>
      .cls-1 {
        fill: #000;
      }

      .cls-1, .cls-2 {
        stroke-width: 0px;
      }

      .cls-2 {
        fill: none;
      }
    </style>
  </defs>
  <path id="Rectangle_4543" data-name="Rectangle 4543" class="cls-2" d="M0,0h240v240H0V0Z"/>
  <g>
    <path class="cls-1" d="M217.4,112.8c-.3-.9-.8-1.7-1.6-2.1-.7-.4-1.4-.6-2.2-.9-2.6-22.9-12-42.6-28.5-58.8-16.6-16.1-36.5-25.2-59.5-27.1-39.8-3.4-78.8,18.4-96,56.9-16.9,37.9-7.8,83.2,24.5,111.5,16.1,14.2,35,22.2,56.4,23.7,25.5,1.8,48.2-5.5,68.3-21.4,0,0,.1,0,.1.2.6.6,1.2,1.3,1.8,1.9.8.7,1.6,1.3,2.4,1.9,1.3,1.1,2.6,2,4.1,2.7,1.1.5,2.3,1,3.4,1.5,2,1,4,1.8,6.2,2.3,1.1.3,2.3.6,3.4.6,2.9.2,5.8.2,8.7-.7.8-.2,1.6-.6,2.2-1.1,1.2-1.1,1.8-2.6,1.9-4.3.1-2.3-.3-4.5-1.3-6.6-.7-1.5-1.4-3-2.2-4.5-.9-1.6-1.9-3.1-2.8-4.7-.9-1.5-1.7-3-2.5-4.6s-.8-1.7-1.3-2.5c-.9-1.2-1.2-2.5-1.1-3.9,0-.2,0-.5.1-.7.6-1.1,1.1-2.2,1.8-3.2,1-1.3,2-2.6,2.5-4.2.1-.5.3-.9.4-1.4.3-.7.5-1.5.8-2.3.4-1.2.1-2.2-.6-3.2-.2-.3-.2-.5,0-.9,1-2.7,1.9-5.5,3-8.2,1.1-3,1.4-6.3,2.8-9.2.4-.7.7-1.5,1-2.2.7-1.6,1.4-3.3,2-5,.5-1.4.8-2.9,1.2-4.4.3-1.5.6-3.1.7-4.7.2-1.8,0-3.7.2-5.5.1-1.7.2-3.3-.3-4.9ZM39.9,159.9c-.7,1-1.4,2-2.2,3-.4.5-.9,1-1.5,1.5-.5.4-.8.3-1.1-.3-3.7-6.8-6.5-14.1-8.3-21.7-.9-3.5-1.5-7.1-2-10.7-.7-5.2-.9-10.5-.7-15.7.6-12.9,3.6-25.1,9.2-36.7,4.3-8.9,9.8-16.9,16.6-24.1,7.2-7.5,15.5-13.7,24.7-18.5,8.2-4.2,16.7-7.2,25.7-8.9,5-.9,10.1-1.4,15.2-1.5,14.8-.4,28.9,2.6,42.3,9,9.3,4.3,17.5,10.1,24.9,17.1,7.9,7.7,14.3,16.5,19.1,26.4,3.5,7,6.1,14.4,7.6,22.2.6,2.8.9,5.7,1.3,8.6.1,0,0,.2,0,.3-2.4.2-4.7.8-7,1.6-.1-1.2-.3-2.3-.4-3.4-.5-4.1-1.4-8.2-2.6-12.1-3.9-13.4-10.6-25.1-20.1-35.3-7.2-7.7-15.6-13.8-25-18.4-7.4-3.6-15.1-6.1-23.2-7.5-4.3-.7-8.7-1.2-13.1-1.2-21.2-.3-40,6.2-56.5,19.6-11.4,9.3-19.8,20.9-25.3,34.6-2.3,5.6-3.9,11.4-5,17.4-.5,3.2-.9,6.4-1.1,9.6,0,1.3,0,2.5-.2,3.8,0,.8-.3,1.6-.3,2.4-.2,1.5-.3,3-.3,4.5-.1.9-.1,1.8-.1,2.8s.1,2,.3,3c.2,1.7.4,3.5.8,5.1.4,1.8.8,3.5,1.4,5.1.7,1.9,1.4,3.8,2.3,5.6,1.8,3.6,2.9,7.4,4.8,10.9.4.7.2,1.3-.2,1.9ZM179.7,121c-.3-.2-.4-.5-.2-.8.4-.9.8-1.7,1.2-2.6.7-1.2,1.1-2.5,1.3-3.9.3.1.7.2,1.2.3-.2-.7-.3-1.4-.5-1.9-.5-1.1-1.2-2.1-2-3.1-1-1.1-1.9-2.2-2.8-3.5-.5-.7-.7-1.5-1.1-2.3-.1-.1-.1-.3-.2-.4-.5-1.4-1.1-2.7-1.6-4-.8-2.4-1.1-4.9-.9-7.4,0-.8,0-1.6.2-2.4.2-.9.5-1.8.5-2.6,0-1.4-.2-2.7-1.4-3.7-.3-.1-.4-.4-.5-.7-.1-.6-.5-1.1-1-1.4-1.6-.9-3.3-1-5.1-1.2-1.6-.2-3.3-.4-5-.6-.4,0-.8-.2-1-.6-.5-1-.8-2.1-1.1-3.2-.1-1-.5-2-1.2-2.8-.2,0-.3-.4-.3-.6,0-.8-.3-1.5-1.1-1.9-1-.4-1.8-.9-2.7-1.4-.3-.2-.5-.5-.6-.8-.9-1.6-1.4-3.4-1.3-5.2,0-1.4.3-2.8.9-4.1.5-1,.8-2,1.2-3,.3-.9.7-1.8,1-2.8.2-.7.1-1.5.1-2.3v-1.1c.5.3.8.4,1.2.6,5.3,2.8,10,6.3,14.5,10.3,6.1,5.5,11.2,11.7,15.4,18.7,5.4,9,8.9,18.6,10.4,28.9.4,2.2.5,4.4.7,6.5,0,.4-.1.6-.4.8-1.2.7-2.3,1.4-3.4,2.1-.9.7-1.9,1.5-2.8,2.2-.7.7-1.4,1.4-2.2,2.1-.7.7-1.3,1.4-2,2l-2,2c-.6.7-1.3,1.4-1.9,2.1-.8,1-1.6,1.9-2.4,2.9-.8,1-1.6,2-2.5,3-.1.2-.5.3-.8.3s-.4-.2-.3-.6c.6-1.9,1.1-3.9,1.7-5.9.2-.6.3-1.3.5-1.9.2-1,.5-2,.8-3,.2-.7.2-.8-.5-1.1ZM167.6,130.1c.2.1.5.1.6.2.2.2.2.5.3.7,0,.2,0,.4.2.6.6-.2,1-1.1.5-1.7-.5-.6-1.1-1.1-1.7-1.7s-.5-.4-.3-.7c.2-.3.5-.4.9-.2.7.4,1.4.2,2.1.1.2,0,.4-.2.4-.4.3-.9.5-1.8.8-2.7,0-.1-.1-.3-.3-.4-.4-.3-.9-.5-1.4-.7-.8-.3-1.6-.6-2.5-.9,0,0,0-.1,0-.2.1,0,.3-.1.5,0,1.4.2,2.7.7,4,1.2.3.1.6,0,.9.1,0-.3,0-.8-.2-1-.5-.5-.2-.9,0-1.4.2-.7.3-1.4,0-2.1-.2-.5-.3-1,.2-1.3.5-.4.2-.8.2-1.2s-.2-1-.6-1.3c-.3-.3-.2-.5.1-.7.6-.4,1.3-.3,2-.1.3.1.5.2.8-.1,0-.1.1-.1.3-.2-.3.9-.5,1.7-.8,2.5-.3.9-.6,1.8-.8,2.8-.3.9-.3,1.8-.5,2.7-.2,1.1-.6,2.1-1.1,3-.6,1.1-1.2,2.2-1.5,3.4-.2,1-.6,1.9-1,2.7-.4.8-.9,1.6-1.4,2.4-.2.2-.4.4-.6.7,0-.1-.1-.1-.1-.1-.1-.4-.1-.7-.1-1,0-.8-.1-1.6-.1-2.4s.1-.4.1-.6ZM167.2,128.9c0,0,0-.1.2-.2.4.4.7.7,1.1,1.1-.1,0-.2.1-.2.2l-1.1-1.1ZM175.3,113c-3.2-1.1-6.4-1.8-9.7-2.3-.6,0-.7-.2-.7-.8,3.2-.1,6.3.8,9.4.8-.2-.1-.6-.2-.8-.3-.3-.2-.6-.4-.9-.6-.1,0-.2-.1-.3-.1-.8.4-1.6,0-2.4-.2-.2,0-.4-.3-.6-.6-.3-.5-.7-.8-1.3-.9-.3,0-.5-.1-.7-.3-1.3-.9-2.6-1.7-3.1-3.4,0-.1-.2-.2-.3-.4-.1-.1-.2-.2-.2-.4.1,0,.3-.2.4-.2.8-.1,1.5-.2,2.3-.4,1.2-.2,2.4-.4,3.6-.7h0c-.2,0-.5-.2-.7-.2-2,.2-4,.4-5.9.6-.6.1-.9-.1-1-.6-.1-.2-.3-.5-.3-.8-.1-.2,0-.4.1-.7,0-.1,0-.3,0-.4-.3-.7-.3-1.5-.9-2.1-.2-.3-.2-.8-.2-1.2s.3-.3.4-.3c2-.4,3.9-.8,5.9-1.3.1,0,.3-.1.4-.2v-.2c-.3,0-.6,0-.8.1-1.1.2-2.2.4-3.3.5-1.3.2-2.5.4-3.8.6-.1,0-.4-.2-.5-.3-.3-.6-.6-1.2-.8-1.8-.2-.3-.2-.6-.3-.9-.4-.9-.7-1.7-1.1-2.6-.3-.6-.3-.8.2-1.2.7-.6,1.5-.9,2.4-1.1,1.8-.5,3.7-1.1,5.5-1.5,1.1-.3,2.2-.5,3.2-.7,0,0,.3,0,.4-.1-.2,1.4-.4,2.7-.6,4-.3,1.1-.3,2.3,0,3.4.2.9.2,1.7.4,2.5.4,1.4.8,2.7,1.2,4,.4,1,.7,2,1.1,3,.4.9.8,1.9,1.3,2.8.9,1.5,1.9,3,2.9,4.4.5.6,1.1,1.1,1.7,1.5.3.3.3.5.2.8-.4,1-.8,1.2-1.8.8ZM154.2,85.6c-.4.1-.9-.1-1.3-.1v-.3c1-.1,1.9-.3,2.9-.4,1.8-.1,3.7,0,5.5-.1,1.2,0,2.4,0,3.5,0s.2-.1.3-.1c-3.9-.6-7.5-.4-11.3.1-.4,0-.8,0-1.2.2-.5.1-.8-.2-1.1-.7.9-.3,1.8-.6,2.7-.8,1.6-.5,3.3-.9,5-1.4,1.2-.5,2.5-.5,3.7-.4,2.2.2,4.4.5,6.6.7.5,0,.5.2.4.6-.2.6-.4,1.2-.6,1.7-.1.1-.3.3-.5.3-1.6-.1-3.1.2-4.7.5-1.7.5-3.4.8-5.1,1.2-1.2.3-2.4.7-3.6,1-.2.1-.3.1-.5.2-.6.1-.7,0-.6-.6v-.3c0-.4.2-.4.5-.4s.6,0,.9-.1c.3,0,.3-.2.1-.4-.5-.2-1-.5-1.6-.3ZM144,74.5c-.1,0-.1-.1-.1-.1.2-.6.2-.7-.5-.9-1.2-.2-1.9-1.1-2.9-1.8-.5-.4-1-.8-1.6-1.1-.9-.7-1.9-1.4-2.8-2-.3-.2-.3-.5,0-.7.3-.4.5-.8.8-1.2.3-.2.6-.4.9-.6,1.5-.8,2.9-1.6,4.4-2.3,1.1-.6,2.2-.9,3.3-1.4.9-.4,1.7-.8,2.5-1.3,0,.1,0,.3,0,.4.3,1.2.5,2.3.8,3.5.2.9.6,1.8,1.3,2.6.7.7,1.3,1.5,2.1,2,.8.6,1.8,1.1,2.7,1.6.3.1.7.2.7.6s-.4.7-.8.8c-.9.3-1.9.6-2.9.8-2.3.7-4.6,1.4-7,2.1-.3.1-.6.2-1,.2s-.3-.2-.5-.3c.1,0,.2-.2.4-.3.9-.4,1.9-.7,2.9-1.1.2-.1.3-.1.5-.2h0c-1.1.2-2.2.4-3.2.7ZM130.1,65.1c-.9-.4-1.9-.7-2.9-1.2-1.1-.5-2.3-1.2-3.4-1.8-.3-.1-.5-.1-.8-.1h-.6c0-.1-.1-.1-.2-.2,0-.1.3-.1.4-.1.6-.4,1.2-.9,1.9-1.3,1.1-.7,2.2-1.4,3.3-2.2.7-.4,1.3-.9,2-1.3.6-.4,1.3-.7,1.9-1.1,1-.5,2-1.1,3-1.6,1.3-.6,2.6-1.2,3.9-1.9.8-.4,1.6-.8,2.5-1.3.8-.4,1.7-.7,2.5-1.1,1.1-.5,2.2-.9,3.2-1.4.6-.2,1.2-.4,1.8-.6.6-.2,1.1-.4,1.7-.6.1,0,.2-.1.4-.3-.4,0-.6-.1-.7,0-1.1.2-2.3.4-3.3.7-1,.3-1.9.8-2.9,1.1-1.1.4-2.2.7-3.2,1.2-1.1.4-2.1.9-3.1,1.3-1,.5-2.2.9-3.2,1.4-1.6.7-3.1,1.5-4.6,2.3-1.6.8-3.1,1.7-4.6,2.6-1.1.7-2,1.4-3,2.1-.6.5-1.2.9-1.7,1.4-.3.1-.5.2-.7-.1-.3-.3-.6-.5-1-.6-.5-.2-1-.3-1.5-.4h-.4c-.3.4-.7.2-1,.1-2.2-.4-4.3-.9-6.4-1.4-.1-.1-.2-.1-.3-.2.7-.3,1.3-.5,1.8-.8,1.6-.8,3.1-1.6,4.7-2.4,1.1-.6,2.3-1.3,3.5-1.9,1.8-1,3.7-1.8,5.7-2.4,1.7-.6,3.4-1.1,5.2-1.5,1.7-.5,3.5-.9,5.2-1.3-.8.1-1.7.2-2.6.4-1.4.3-2.8.7-4.2,1.1-2.3.6-4.5,1.3-6.8,2-1.2.4-2.4.9-3.6,1.4-.6.3-1.2.5-1.7.8-1.7.8-3.3,1.7-4.9,2.6-.9.5-1.7,1-2.6,1.4-.7.4-1.4.5-2.2.5-1.1-.1-2.2-.1-3.5-.2.2-.2.3-.4.5-.5,1.7-1,3.4-2,5.2-3,1.2-.7,2.4-1.5,3.7-2.1,1.1-.6,2.4-1.2,3.6-1.7,1.3-.5,2.7-1.1,4.1-1.6,2.7-.9,5.5-1.7,8.3-2.3,2.3-.4,4.7-.9,7.1-1.2,3.9-.6,7.8-.9,11.8-.8,1.2.1,2.5.1,3.6.7.6.4,1,.8,1,1.5.2,1.5,0,3-.7,4.3-.6,1.2-1.2,2.3-1.7,3.5-.5,1.1-.8,2.4-1.2,3.6-.2.8-.3,1.4-1.3,1.6-1.2.2-2.3.9-3.5,1.3-.9.3-1.8.6-2.7,1-.9.4-1.9.8-2.8,1.2-.9.4-1.9.8-2.8,1.2-1.1.5-2.1,1-3.1,1.6-.8.4-1.2.4-1.7-.2.1-.1.2-.2.5-.3-.3-.3-.6-.7-.9-.9ZM100.5,56.6c-.4.3-.8.6-1.1,1-.4.5-1,.5-1.6.5-2.3,0-4.7.1-7.1.1s-4.4.6-6.6,1c-1.6.3-3.1.8-4.7,1.2-1.3.4-2.5.8-3.8,1.2-1.2.5-2.4,1-3.6,1.5-1.3.6-2.6,1.2-3.9,1.9-.7.3-1.4.7-2.1,1.2-1.2.7-2.5,1.4-3.7,2.2-.4.2-.7.5-1.1.8-1.5,1-3,2.1-4.5,3.2-.8.6-1.5,1.3-2.3,2-.7.6-1.4,1.3-2,1.9-.7.8-1.4,1.6-2.1,2.4-.7.9-1.4,1.9-2.1,2.9-.9,1.1-1.8,2.3-2.6,3.5,7.5-16.3,19.6-29.1,37-37.6,18.2-9,37.4-10.3,57-5.2v.2c-1.6.2-3.1.4-4.7.6-1.4.2-2.7.4-4,.7-1,.2-2,.4-3,.7-1,.2-2,.5-3,.8-.9.2-1.8.4-2.7.6-.9.2-1.9.4-2.8.8-1.7.6-3.3,1.2-4.9,1.9-1.4.6-2.7,1.3-4,2-1.2.6-2.4,1.2-3.6,1.9-1.2.6-2.3,1.4-3.4,2.1-1,.6-2,1.3-3,2ZM147.4,77.6c.1-.2.4-.3.6-.4.1-.2.4-.4.4-.6-.1-.6.4-.7.8-.9.4-.1.8-.3,1.2-.4,1.5-.5,2.9-1,4.5-1.6.1.8.2,1.4.4,2.1.2,1,.7,1.7,1.3,2.4.7.7,1.3,1.4,2,2.1.2.2.5.4.8.6-.2,0-.2.2-.3.2-1.9,0-3.8.3-5.6.9-.8.3-1.7.6-2.5.8-.2,0-.5-.1-.6-.2-.4-.6-.8-1.1-1.4-1.5-.1,0-.2-.2-.2-.3.1-.6-.1-1-.7-1.3-.1-.1-.2-.3-.2-.4-.2-.4-.2-.8-.6-1.1,0,0,0-.3.1-.4ZM42.5,91.9c-.2.5-.4,1.1-.5,1.6-.4,1.4-.8,2.7-1.2,4.1s-.8,2.8-1.2,4.3c-.1.3-.3.7-.5,1,0,0-.1,0-.2,0,.9-3.8,2-7.4,3.6-10.9ZM57.6,172.9c-3.6,1.7-7.4,2.5-11.4,2.5s-2.2-.3-3.2-.5c-.8-.2-1.2-.8-1.6-1.4-1.3-2.5-1.1-5.2-.7-7.8.3-1.6.8-3.2,1.6-4.7.6-1.1,1.3-2.1,2.1-3.1.3-.5.4-.4.7.1.8,1.2,1.6,2.5,2.3,3.8.2.5.4,1.1.5,1.7,0,.9.6,1.5,1.1,2.1.4.8.9,1.5,1.4,2.2,0,.3.3.5.4.8.3.5.6,1,.7,1.5.2.6.2,1.3.3,2,.1,0,0,.2,0,.2-.7.5-1.2,1.1-2.1,1.2-.7,0-1.5,0-2.2.1-.8,0-1.5.1-2.3,0-.5,0-1-.1-1.6-.2-.3-.1-.6-.1-1-.2,0,.1,0,.2-.1.3.3.1.6.3,1,.4,3.4,1,6.8.4,10.2-.6,1.3-.3,2.5-.7,3.7-1,.3-.1.5,0,.8,0,0,0,0,.1.1.1-.2.2-.4.4-.7.5ZM143.5,177.1c-.4.3-.8.3-1.3.5-1.7.4-3.5.4-5.2.1-1.8-.4-3.4-1.1-5-1.8-1.1-.5-2.1-1.2-3.2-1.8-1.8-1.1-3.4-2.5-4.7-4.1-1.1-1.3-2.1-2.5-2.7-4.1-.4-.8-.8-1.6-1.2-2.4-1.4-3.4-1.7-7-1.3-10.6.1-1.1.3-2.2.5-3.2.4-1.7,1.1-3.2,2.1-4.6.5-.7,1.2-1.3,2-1.8.8-.6,1.6-1,2.6-1.4,1.2-.4,2.5-.6,3.8-.9.1,0,.2,0,.3,0h0c-.7-.1-1.5-.1-2.1,0-1.7.4-3.4,1-4.8,2-.8.5-1.4,1.2-2.1,1.8-1.1.8-1.7,2-2.4,3.1-.1.3-.3.4-.4.6q-.1,0-.2-.1c.2-.4.5-.8.7-1.2-.1,0-.1-.1-.2-.1-.1.2-.3.4-.4.6-.3.5-.6,1-.9,1.5-.1.2-.2.5-.2.8-.1.7-.2,1.3-.3,2s-.3,1.5-.4,2.2c-.1.1-.1.3-.2.4h-.1c.1-.7.2-1.4.2-2.2h-.2c-.2.4-.4.8-.6,1.2-.1.4-.3.8-.8,1,0,.1-.2.4-.3.6-.1.4-.1.8-.2,1.3h-.2c0-.2,0-.4-.1-.5-.1-.5-.3-.6-.7-.4-.4.1-.8.2-1.2.4-.3,0-.6.3-.6.8-.1.2-.3.5-.5.7,0,.1-.1.1-.1.2-.2,1.1-1,1.9-1.6,2.8-.2.2-.3.5-.4.7-.2.6-.3,1.1-.5,1.6-.1.4-.4.7-.7.9-.9.4-1.8.8-2.8,1-1.2.2-2.4.2-3.6,0-.8,0-1.5-.2-2.2-.3-.4-.1-.8,0-1.2,0s-.6.1-.8-.1c-.4-.2-.6-.1-.9,0-.4.2-.8.2-1.2.4-.3.1-.7.2-.9.4-.4.5-1,.5-1.4.7-.6.2-1.3.2-2,.3-.4,0-.8-.1-1.2-.1-1.1,0-2.1,0-3.2,0-1.2,0-2.5.1-3.7.1s-.3.1-.3,0c-.8-.5-1.7-.2-2.6-.5-.9-.2-1.8-.2-2.8-.4-.3-.1-.6-.3-1-.4-1.1-.2-2.2-.4-3.3-.7-.6,0-1.1-.3-1.7-.4-.2,0-.4.1-.7.2-.2,0-.3.1-.5.1-1.3,0-1.4-.1-1.8,1-.1.4-.6.5-1,.3-.4-.2-.8-.4-1.2-.4s-.6.2-.9.4c-.3.2-.2.6,0,.9.3.4.7.8,1.1,1.2.3.3.6.7.9,1,.1,0,.3.3.4.4.2.2.4.4.6.6.1.2.2.3.3.5.4.3.4.6,0,.9-.3.3-.3.6.1.7,1,.3,1.6,1.1,2.4,1.6,1.2,1,2.6,1.7,3.9,2.7.8.7,1.9,1,2.8,1.7.1.1.4.1.6.2,1.7.7,3.4,1.4,5.1,2.1.5.2,1.1.6,1.6.8,1.5.6,3,1.2,4.5,1.7.7.2,1.4.3,2.1.5.8.2,1.6.3,2.5.6,2.6.6,5.2.8,7.8,1.2,1.4.2,2.8.2,4.2.3,1.7.1,3.4.1,5.1.1s2.6,0,3.9-.1c1.4-.1,2.8-.4,4.2-.5.9-.1,1.9-.2,2.8-.4.8-.1,1.4-.3,2.2-.5.4,0,.8-.3,1.2-.2,1,.1,1.8,0,2.7-.4.5-.2,1.1-.3,1.7-.4,1.1-.4,2.2-.7,3.4-1,.6-.2,1.3-.4,1.9-.6.3-.1.5-.4.8-.5.2,0,.4,0,.5,0,1.3,0,2.6,0,3.9,0s.3.1.5.2c0,.1-.2.2-.3.2-1.7.6-3.4,1.2-5.2,1.7-2.7.9-5.5,1.7-8.3,2.3-7.2,1.7-14.4,2.2-21.7,1.8-2.4,0-4.9-.3-7.3-.6-2.4-.3-4.8-.7-7.2-1.2-1.8-.3-3.6-.8-5.3-1.3-1.6-.5-3.2-1-4.7-1.6-1.6-.6-3.1-1.2-4.6-1.9-1.7-.8-3.3-1.6-5-2.5-1.4-.8-2.8-1.6-4.2-2.5-1.5-.9-3-1.8-4.4-2.9-1.3-.9-2.4-1.9-3.6-2.9-1-.9-2.1-1.8-3.1-2.8-1.2-1.3-2.4-2.6-3.5-3.9-1.1-1.2-2.1-2.3-3.1-3.5-.8-1-1.6-1.9-2.3-2.9-.8-1.1-1.5-2.1-2.2-3.2-.6-.8-1.1-1.6-1.7-2.5-.6-1-1.3-2-2-3-.4-.7-.7-1.3-1.1-2-.5-.9-1-1.9-1.4-2.8-.7-1.6-1.4-3.2-2.1-4.8-.4-1.1-.9-2.3-1.2-3.4-.6-2.3-1.2-4.7-1.2-7.1s0-4.1.1-6.1c.1-1.1.4-2.2.6-3.3.4-1.7.9-3.3,1.7-4.8.7-1.2,1.4-2.5,2.2-3.7.7-.9,1.4-1.9,2.2-2.7.6-.7,1.3-1.3,2-1.9.1-.1.3-.3.3-.5.2-1.8.2-3.7.5-5.5.2-1.6.7-3.2,1-4.8.3-1.1.6-2.2,1-3.3.3-.8.8-1.7,1.2-2.5.4-.5.8-1,1.2-1.6.9-1.3,2.2-2.1,3.6-2.7.8-.4,1.6-.9,2.6-.9s1.2,0,1.7.1c.2.1.4.3.5.5.5,1.8.3,4.3-1.8,5.5-.7.4-1.4.9-2.3,1.1-1.2.2-1.9-.3-2.6-1.3-.3-.5-.5-1.1-.8-1.7-.1.1-.3.1-.3.3-.5.9-1,1.8-1.4,2.8-.4,1-.9,2.1-1.2,3.2-.5,1.7-.8,3.4-1.2,5.1-.2,1.5-.4,3-.6,4.6-.1.3,0,.6-.1.9-.1.9.4,1.6,1.1,2.1,1.7,1.4,3.7,1.9,5.9,1.3,1.1-.3,2-.9,2.8-1.6.4-.3.9-.6,1.2-1,.7-.9,1.4-1.8,2.1-2.8.3-.5.6-1,.9-1.5.8-1.4,1.4-2.8,1.8-4.4.5-1.8,1.1-3.6,1.3-5.5.4-2.3.5-4.7-.1-7.1-.2-.9-.5-1.9-1.4-2.5-.6-.4-1.2-.8-1.9-1-1.6-.6-3.2-.5-4.7.4-.3.1-.5.2-.9.2.4-.6.8-1.1,1.3-1.6.7-.8,1.4-1.6,2.2-2.3.2-.3.6-.6.9-.8,1-.7,1.9-1.4,2.8-2.1.7-.5,1.3-1,1.9-1.4,1-.7,2-1.3,3-2,1.2-.7,2.5-1.4,3.7-2.1,1.8-.9,3.6-1.8,5.4-2.6.9-.5,1.9-1,2.9-1.3,1.1-.5,2.3-.8,3.4-1.2.6-.1,1.1-.3,1.7-.5,2.8-.8,5.6-1.5,8.4-1.8,3.6-.5,7.1-.5,10.6-.3,2,.1,4.1.2,6.1.5,2.7.4,5.4.9,8.1,1.5,2.1.5,4.1,1.3,6.1,2.1,1.5.5,3.1,1.2,4.7,1.9.7.3,1.4.8,2.2,1.2.9.5,1.8,1,2.7,1.5,1.2.7,2.4,1.3,3.5,2.1.7.4,1.3.9,2,1.4.9.6,1.8,1.2,2.7,1.9.7.6,1.5,1.2,2.2,1.8.9.8,1.9,1.6,2.8,2.5,1,.9,2,2,3,3,1,1.1,2,2.3,3,3.5,1,1.2,1.9,2.5,2.8,3.8.7.9,1.3,1.7,1.9,2.7.7,1,1.4,2.1,2,3.2.6.9,1.1,1.9,1.6,2.9.7,1.4,1.5,2.9,2.1,4.4,1.1,2.5,1.9,5.1,2.6,7.7.4,1.8.9,3.6,1.2,5.4,1.2,6,1,12,.6,18-.2,1.8-.7,3.7-1.2,5.5-.6,1.8-1.3,3.6-2.1,5.3-.6,1.3-1.3,2.6-2.1,3.8-1,1.7-2.2,3.3-3.4,4.9-.7,1-1.5,1.8-2.3,2.7-.9.9-1.7,1.7-2.5,2.6h-.2q-.2-.8.5-1.3c.3-.2.7-.5,1-.9,1.1-1.3,2.4-2.5,3.3-3.9.7-1.1,1.5-2.1,2.1-3.3.2-.3.4-.5.6-.8h-.1c-.2.2-.5.4-.7.7-.7.8-1.4,1.7-2.1,2.6-.5.5-.9,1.1-1.3,1.6-.8.8-1.5,1.6-2.5,2.1-.4.2-.8.6-1.2.9-.7-.5-.6-.9.1-1.5.7-.5,1.3-1.2,1.9-1.8.8-.7,1.5-1.5,2.2-2.3,1.2-1.4,2.5-2.7,3.5-4.2,1-1.5,1.8-3.2,2.5-4.8.5-1.2.7-2.6,1-3.9.4-1.6.9-3.2,1-4.8.3-2.5.3-5,.4-7.5,0-.5-.2-1.1-.2-1.6h-.2c-.1.5-.3,1.1-.4,1.6-.3,1.1-.5,2.3-.8,3.4-.1.5,0,.9-.1,1.4-.1.6-.2,1.2-.4,1.8-.1.2-.3.4-.4.5-.2.1-.4.1-.5.1s-.2-.3-.2-.4c0-.9-.3-1.7-.7-2.4-1-1.8-2.7-2.2-4.3-.9-1.2,1-1.8,2.2-2.1,3.6-.2.8-.1,1.5.3,2.2.5.6,1.2.5,1.8.6h1c.5,0,.9-.1,1.1-.7s.8-.6,1.2-.1c.2.2.4.5.6.8.2.2-.1,1-.5,1.1-.2.1-.4.1-.6.2.3.4.6.8.9,1.1.3.3.4.7.1,1-.4.6-.9,1.1-1.4,1.6s-.2.2-.3.4c-.2.4-.3.9-.6,1.3-.2.2-.5.3-.7.5-.4.3-.7.7-1,1.1-.4.3-.8.6-1.2.9-.1.1-.3.3-.3.4-.2.7-.8,1.1-1.3,1.6-.8.6-1.8.8-2.6,1.3-.5.2-1,.2-1.5.3,0,0-.1.1-.3.1.1.2.2.3.3.5-.7-.3-1.4-.4-1.8-1-.4-.5-.9-.8-1.3-1.2-.4-.3-.8-.6-1.1-1-.8-.9-1.6-1.9-2.5-2.8-.5-.5-.9-1-1.6-1.2.8.9,1.4,1.6,2.2,2.4q0,.1-.2.2c-.1,0-.2,0-.3-.2-1.6-1.4-3.3-2.4-5.3-2.9-1.2-.4-2.5-.5-3.8,0h1.2c1.8,0,3.2.8,4.4,2.1.3.3.7.7,1,1,1.2,1.1,2.3,2.3,3.3,3.7.6.9,1.3,1.8,1.9,2.7.7,1.1,1.2,2.2,1.8,3.4s1.3,2.8,1.8,4.2c1.2,3.5,1.7,7.1,1.2,10.7-.1,1-.2,2-.8,2.8-.2.2-.2.6-.3.9-.5,2.1-1.6,3.7-3.5,4.7ZM54.5,104c-.2.6-.6.9-1,1.3-.8.8-2,1.2-3.1,1.2-2.1,0-3.5-1.2-4.4-3-.6-1-.7-2-.7-3s.2-.7.6-.9c.6-.3,1.4-.5,1.7-1.3,0-.1.3-.2.5-.3h.8c.3,0,.5.1.7.5.3,1.1.9,2,1.9,2.6.7.4,1.4.4,2.1.4.7-.1.8,0,.8.6.1.6.3,1.2.1,1.9ZM58.1,90.2v-.4c0-.6.6-1,1.1-.7.1,0,.3.2.3.3-.1.6-.1,1.1-.2,1.6,0,.5-.3.5-.7.5s-.4-.3-.4-.5c-.1-.3-.1-.5-.1-.8ZM160.3,136c-.1-.3-.1-.7,0-1.1,0-.1,0-.3.1-.5,0,0,.3-.1.3,0,.1.1.2.3.2.3-.1.6-.1,1-.2,1.4,0,.1-.2.2-.3.2,0-.1-.1-.2-.1-.3ZM168.3,163.9c-.4.5-.8.9-1.1,1.5-.9,1.2-2,2.1-3.2,3-.8.7-1.6,1.4-2.4,2-1,.8-2.1,1.5-3.2,2.2-1.1.7-2.1,1.4-3.2,2s-2.3,1.2-3.4,1.7c-1.6.7-3.2,1.3-4.8,1.9-.1,0-.3.1-.5.1.5-.6,1.2-.9,1.5-1.7.2-.6.7-1.2,1.1-1.9v.8c.7-.3,1.4-.5,2-.9.9-.4,1.8-.9,2.7-1.4.8-.5,1.6-.9,2.4-1.5,1.7-1.1,3.3-2.2,4.9-3.4,1.2-.8,2.3-1.6,3.6-2.3,1.1-.7,2.1-1.6,3.1-2.6.5-.5,1-.9,1.5-1.4q.1.1.2.2c-.4.5-.8,1.1-1.2,1.7ZM168.3,161.4c-.5,0-1-.1-1.5-.1s-.2,0-.2-.1c-.4-.8-1.3-.4-1.9-.7-.5-.2-1.1-.5-1.5-.9-.3-.4-.4-.9-.3-1.4.3-1.1.5-2.2.7-3.2.1-.4.3-.8.4-1.3.1-.2,0-.4.1-.6h-.2l-.3.3c-.4,1.1-.8,2.1-1.3,3.1-.7,1.3-1.4,2.7-2.1,3.9-.7,1.1-1.5,2-2.3,3-.5.7-1.1,1.3-1.7,1.9-.6.7-1.2,1.4-2,2-.9.7-1.9,1.4-2.8,2.1-.1,0-.2,0-.2.1-.1-.4.1-.8.5-1.1.8-.6,1.7-1.2,2.4-1.9.8-.7,1.4-1.4,2.1-2.1s1.3-1.4,1.9-2.1c.5-.6.9-1.1,1.2-1.7,1-1.5,1.9-3.1,2.8-4.6,1-1.6,1.4-3.4,1.9-5.1.2-.6,0-1.2,0-1.8-.1-1-.1-2,.3-2.9.4-1,1-2,1.5-3,.1-.3.2-.6.3-.9,0-.1,0-.3.1-.3.3-.4.1-.8.1-1.2-.2-1.5-.4-3-.6-4.5-.1-.3,0-.6,0-.8h.2c.1.2.1.4.2.6.6,1.2,1,2.4,1.7,3.5.6.9,1.5,1.6,2.5,2.1,1.1.4,2,1.1,2.4,2.3.2.8.6,1.5.9,2.2.6,1.3.7,2.7.9,4.1.2,1.2.3,2.4.4,3.6.1,1.7-.2,3.3-.6,5-.2.7-.4,1.5-.6,2.2-.1.5-.4.6-.9.4-.7-.3-1.4-.6-2.3-.4-.7.1-1.5.2-2.2.3ZM203.1,183.1c.7,1.3,1.5,2.6,2.3,4,.7,1.2,1.3,2.4,1.9,3.6.5.9,1.1,1.8,1.5,2.7.3.8.4,1.6.7,2.4.1.3.3.5.3.8v2.8c0,.2,0,.4-.3.5-.3.2-.3.5,0,.8.3.2.2.5.1.7-.4.4-.7.9-1.1,1.1-2.2,1.2-4.6,1.1-7,1-2-.2-3.9-.5-5.7-1.1-1.5-.4-2.9-1-4.3-1.6-1.2-.6-2.4-1.1-3.5-1.8-1.1-.7-2.1-1.5-3-2.3-1-.8-2-1.7-2.9-2.6-1.3-1.4-2.4-2.8-3.6-4.2-.6-.8-1.1-1.6-1.6-2.5-.6-1-1.2-2.2-1.7-3.3-.6-1.4-1.2-2.9-1.7-4.3-.5-1.7-1-3.4-1.2-5.2-.3-1.5-.3-3-.3-4.4s-.1-.8-.1-1.2q.1,0,.2-.1c.2,1,.5,2,.7,3,.2.9.3,1.8.4,2.6h.2c0-.5-.1-1-.1-1.4h.1c.1.1.2.2.2.4.5,1.6.8,3.3,1.6,4.9.7,1.5,1.2,3,1.9,4.5.2.4.3.8.4,1.2.3.9.8,1.7,1.3,2.4.7,1.1,1.4,2,2.2,3,.6.8,1.3,1.5,2,2.2s1.5,1.5,2.3,2.2c.7.7,1.5,1.3,2.3,1.9,1.1.8,2.1,1.5,3.3,2.2.9.5,1.8,1,2.8,1.4,1.8.8,3.7,1.5,5.5,2.1.6.2,1.2.3,1.8.4,0-.9-.8-1.6-1.6-1.6-.5-.1-1-.2-1.4-.4-.2-.1-.3-.4-.3-.6-.1-.7-.1-1.5-.2-2.2-.3,0-.5-.1-.8-.1s-.2.1-.3.1c0,0,0,.3.1.3.3.3.6.6.8.9.1.1,0,.4.1.6-.2,0-.4.1-.5,0-.5-.2-.9-.5-1.4-.6-.9-.2-1.5-.7-2.1-1.3s-1.5-1.3-2.3-2c-.6-.6-1.3-1.2-1.9-1.8-.7-.8-1.5-1.5-2.3-2.3-.5-.6-1-1.3-1.5-1.9-1.1-1.5-2.2-2.9-3.2-4.4-1.2-1.6-2.4-3.1-3.5-4.7-.4-.6-.7-1.2-1.1-1.7-.1-.2-.1-.4-.2-.6,0,0,.1,0,.1-.1.3.4.6.7.9,1,.8,1.2,1.6,2.3,2.5,3.5,1,1.3,2,2.6,3.1,3.9.6.9,1.3,1.9,2,2.8,0,.1.2.3.4.4.1.1.3.1.4,0,.1,0,.2-.2.2-.3,0-.6-.2-1-.5-1.5-.3-.4-.4-.8-.6-1.3-.4-.8-.8-1.6-1.3-2.4-.3-.5-.7-.9-1.1-1.3-.6-.7-1.2-1.5-1.8-2.2-.5-.6-1.2-1.2-1.8-1.9-.8-.9-1.6-1.7-2.4-2.7-1-1.3-1.8-2.7-2.7-4.1-.2-.4-.3-.8-.4-1.1,0-.1.1-.1.1-.1,1.1,1.2,2.2,2.5,3.4,3.8q0-.2-.1-.3c-1-1.4-2-2.8-3.1-4.2-.1-.3-.4-.5-.5-.8-.2-.5-.3-1-.4-1.4q.1-.1.2-.1c.2.2.4.4.6.6.5.8,1,1.6,1.6,2.4.8,1,1.6,2,2.4,2.9.4.4,1.1.6,1.5.9.8.7,1.7.7,2.6,1,.5.1.9.4,1.4.7,1,.6,2,1.1,2.9,1.8,1.1.8,2.4,1.3,3.5,1.9,1,.5,2.1.9,3.1,1.3h.2c-.4-.3-.7-.5-1-.7-.9-.5-1.9-1.1-2.8-1.6-1-.7-2-1.3-3-1.9-1-.7-2-1.5-2.9-2.3-1-.8-2-1.7-2.9-2.6-1.6-1.4-3-2.8-4.6-4.1-.9-.8-1.4-1.7-1.9-2.8-.2-.3-.2-.5,0-.8s.3-.5.4-.8c.2-.6.5-.8,1.1-.5,1.5.7,3.1,1.4,4.7,2.1,1.1.5,2.2.9,3.3,1.3,1.5.6,2.9,1.3,4.4,2,1.7.7,3.3,1.4,5,2.1,1.4.6,2.7,1.2,4.1,1.8.3.1.7.3.9.5.2.1.4.4.4.6.3.9.4,1.8.7,2.7.3,1,.7,2,1.1,3,.7,1.5,1.4,2.9,2.2,4.4ZM193.5,166.6c.2.2.4.3.6.4,0,.1-.1.1-.1.2-.3,0-.5,0-.5-.6ZM204.7,162.4c-.7.9-1.4,1.7-2.1,2.5s-1.3,1.5-2,2.3c-.3.2-.6.5-.8.7h-.5c-1.3-.4-2.6-.7-3.9-1.1-1.7-.5-3.5-1.1-5.2-1.7-1.9-.7-3.8-1.4-5.7-2.2-.9-.3-1.8-.8-2.7-1.2-1-.3-1.9-.7-2.9-1-.3-.1-.7-.3-1-.4-.5-.1-1-.3-1.4-.4-.2,0-.3-.1-.3-.2-.1,0,.1-.2.1-.3.1-.3.4-.5.4-.8v-3.8c1,0,1.9.1,2.8,0,3.7-.5,7.3-.5,10.9-.6.8,0,1.7.1,2.5-.1,1.3-.4,2.6.1,4,0,.6-.1,1.3-.4,1.9-.6.2-.1.2-.3.4-.5.2-.2.4-.5.7-.6.4-.2.5-.4.5-.8,0-.2,0-.4.2-.6h.1c.3.8.5,1.6.7,2.4.2.4.4.8.6,1.2.9,1.5,1.8,3,2.7,4.6.3.4.4,1,.6,1.5.2.7-.2,1.3-.6,1.8ZM209.7,138.4c-.7,1.1-1.5,2.3-2.3,3.4-.6.9-1.2,1.8-1.8,2.7-.7,1-1.5,2-2.2,2.9-.3.4-.6.8-.8,1.1-.6.9-1.4,1.2-2.5,1.3l-3.9.3c-1.1.2-2.2.5-3.4.5-3,.1-5.9,1-8.9,1.6-1.2.2-2.4.3-3.6.5-.5.1-1,.1-1.4.2-.9,0-1.5-.4-2-.9l-.2-.2c-.2-.7-.4-1.5-.7-2.2-.1-.3,0-.4.3-.5,1.3-.5,2.7-1,4.1-1.6,1.7-.7,3.4-1.4,5.1-2.2,1.5-.6,3-1.3,4.4-1.9,2-.8,4.1-1.6,6.1-2.4,2.4-.9,4.8-1.9,7.3-2.5,1.7-.5,3.4-.8,5.1-1.1.4-.1.9-.2,1.3-.2s.4.2.3.4c-.1.3-.1.5-.3.8ZM214.1,127.1c-.3,1.4-.6,2.8-1.1,4.1-.4,1.3-.8,2.6-2.1,3.3-.2-.1-.5-.2-.7-.1-.8.2-1.7.4-2.5.6-.1.1-.2.1-.4.2h.1c.9,0,1.9-.2,2.8-.4-.4.5-1,.8-1.6.9-.7.1-1.3.3-1.9.9-.4.4-1.1.7-1.6.7-1.6.2-3.1.6-4.6,1.1-.2,0-.5.2-.8.2-.2.1-.3,0-.5-.1.6-.2,1.1-.5,1.7-.8.6-.2,1.1-.3,1.7-.5,0,0-.1-.2-.1-.3-.2.1-.5.1-.8.2-1.7.6-3.5,1.3-5.2,2-1.9.7-3.9,1.6-5.8,2.4-1.9.8-3.8,1.7-5.8,2.5-2.7,1.1-5.5,2.2-8.3,3.2-.2.1-.5.1-.8.2h0c.1-.3.3-.5.4-.7-.4-.6-.3-1,.1-1.6.4-.7,1.1-1.1,1.7-1.6.8-.5,1.4-1.2,2.1-1.7.9-.7,1.8-1.3,2.6-1.9.8-.7,1.6-1.3,2.4-2,.5-.4,1-.8,1.5-1.2,1.1-.9,2.3-1.7,3.4-2.5.7-.5,1.4-.8,2.1-1.3.1,0,.2-.3.3-.5.2-.3.3-.6.8-.6-.1.3-.2.4-.3.7.6-.4,1.2-.7,1.7-1,.6-.3,1.3-.6,1.9-.9.8-.4,1.6-.9,2.5-1.2,1.5-.7,3.1-1.4,4.6-2.1,2.8-1.2,5.8-1.8,8.7-2.3.7-.1,1.3-.1,1.9-.2.4,0,.5.2.4.5-.2.6-.3,1.2-.5,1.8ZM214.9,122.4c-.1.8-.6,1-1.2,1.1-1.1.2-2.3.4-3.5.6-.8.1-1.5.4-2.3.6-.3,0-.6.1-.9.2-.5,0-.8.1-1,.5-.1.2-.3.4-.4.4-1,.4-1.9.7-2.9.9-1,.3-2.2.4-3.1.9-2,.9-3.8,1.9-5.7,2.9-1.1.7-2.3,1.3-3.5,2-.7.5-1.3,1-2,1.4-1.5,1-2.8,2.3-4,3.6-.6.6-1.3,1.1-2,1.7-.9.9-1.9,1.9-2.9,2.8-.1.1-.2.3-.3.3-.2.1-.4.1-.5.1-.1-.1-.1-.3-.1-.5,0-.7.4-1.2.7-1.8.1-.2.1-.3.2-.5h-.1c-1.6,1.6-3.1,3.3-4.7,5.1-.2-.4-.3-.8-.4-1.1-.1-.4-.2-.9-.2-1.3,0-.3.2-.6.4-.8,1.3-1.1,2.3-2.3,3.2-3.7,1-1.3,2-2.5,3-3.8,1.1-1.4,2.3-2.8,3.4-4.2,1.5-2,3.3-3.9,5.1-5.7,1.4-1.3,2.8-2.5,4.3-3.6,1.3-1.1,2.7-2.1,4.1-2.9,1.7-1.1,3.4-2,5.2-2.9,1.2-.5,2.4-1,3.7-1.4,2.4-.5,4.7-1,7.2-.8.9,0,1.2.3,1.3,1.2.3,2.1.3,4.1.1,6.1,0,.9-.2,1.8-.2,2.6Z"/>
    <path class="cls-1" d="M89,96.1c0-2.2.5-4.8,1.6-7.4.6-1.3,1.2-2.6,1.9-3.8.6-1,1.4-2,2.4-2.7.9-.6,1.7-1.4,2.6-2.1.7-.5,1.4-.9,2.2-1.2,2.7-1,5.4-1.2,8.2-.8,1.2.2,2.4.6,3.5,1.2,1.2.6,2.4,1.3,3.5,2.1.6.4,1.1,1,1.6,1.5.7.8,1.4,1.5,2,2.4,1.4,2,2.4,4.2,2.9,6.5.6,2.6.7,5.2.3,7.7-.3,2.1-1,4.2-2,6.1-.8,1.4-1.7,2.6-2.9,3.5-.9.7-1.9,1.2-2.9,1.8-1.3.7-2.8,1.2-4.3,1.6-2.9.8-5.8.9-8.7.4-1.7-.3-3.2-1.1-4.6-2.1-.5-.4-1-.7-1.5-1-1.4-1-2.6-2.3-3.5-3.9-.3-.6-.6-1.2-.9-1.8-1.3-2.3-1.7-4.9-1.7-8.1ZM92.6,102c.1.4.2.6.3.9.4.9.8,1.8,1.3,2.6.6.9,1.2,1.8,2,2.5.9.8,1.9,1.3,2.9,2,1.2.8,2.6,1.2,4,1.4,3.3.5,6.3-.2,9.2-1.7,1.2-.6,2.2-1.4,3.2-2.2,1.2-1,2.1-2.2,2.7-3.6.5-1.1.9-2.3,1.3-3.4.1-.4.2-.9.3-1.3,0,0-.2,0-.2,0-.3.7-.6,1.5-.8,2.2-.5-.9-1.6-.9-2.4-1.5-.4-.3-1-.4-1.4-.7-.6-.4-1.3-.2-1.6.5-.3.6-.7,1.3-1.1,1.8-1.4,2-3.5,2.9-5.8,3.3-2.2.4-4.2,0-6.2-1.1-.9-.5-1.8-1-2.7-1.5-.3-.2-.6-.4-.9-.6h.1c.2,0,.4.3.7.4.5.2,1,.4,1.5.4.9-.1,1.7-1.2,1.5-2-.3-1.2-.7-1.7-2-1.6-.9,0-1.6.3-1.9,1.2,0,0,0,.1-.1.2,0,0,0,0-.1,0,0-.2,0-.3,0-.4-.4-.1-.5,0-.5.4,0,.3-.2.5-.4.7-.2.3-.5.5-.8.7-.5.5-.8.9-1.6.4,0,0-.2,0-.4,0ZM102.7,90.9c.5-.1,1.4-.2,2.2-.6.7-.3,1.2-.8,1.8-1.3,1.2-.9,1.9-2.1,2.1-3.6.2-1.2,0-2.2-.7-3.2-.7-1-1.6-1.7-2.9-1.9-2.7-.5-5.2.2-7.1,2-1.2,1.2-2.1,2.6-1.8,4.5.2,1.2.8,2.2,1.9,2.9,1.2.8,2.6.9,4.4,1Z"/>
    <path class="cls-1" d="M102.5,120.2c.5-.9,1.1-1,2.3-.6,1.1.4,1.8,1.1,2.7,1.8.3.3.3.6,0,.9-.5.6-1,1.2-1.5,1.8-.3.3-.6.6-.8.9-.8,1-1.8,1.7-2.9,2.2-.7.4-1.5.6-2.3.6,0,0,0,0,0-.1.3,0,.5-.2.8-.2,1.6-.4,2.9-1.2,4-2.3.6-.6,1.1-1.2,1.5-1.8.3-.4.6-.9.9-1.4.2-.3.1-.5-.2-.7-.4-.2-.4,0-.5.3-.7,2.4-2.4,3.9-4.6,4.7-1.2.5-2.6.5-3.9.3-2.7-.4-5.2-1.2-7.5-2.4-1.6-.8-3.1-1.7-4.6-2.6-1.3-.8-2.6-1.7-4-2.4-2.3-1.2-4.6-2.4-7-3.3-2.3-.9-4.7-1.2-7.1-1.5-2.6-.2-5.2,0-7.8.6-1.3.3-2.5.9-3.7,1.4-.7.3-1.4.7-2.1,1.1-.6.3-1.2.7-1.7,1.1-1.5,1-2.9,2-4.4,2.9-.8.5-1.8.6-2.7.9-.2,0-.4,0-.5-.2-1.3-1-1.8-2.5-2.4-4,0-.2,0-.4,0-.6,0-.3.3-.6.7-.4.6.2,1.1.5,1.6.8.4.2.9.4,1.3.6,0,0,.1,0,.2-.1-.2-.5-.5-1-.7-1.6,0,0,0,0,0,0,.3.4.5.7.7,1.1.3.4.6.5,1,.3.7-.3,1.3-.7,1.9-1.1,1-.7,2.1-1.4,3.1-2.1.8-.5,1.6-1,2.4-1.4,1.7-.8,3.3-1.8,5-2.4,2.7-1,5.5-1.4,8.4-1.2,1.9.1,3.8.4,5.7.9,0,0,0,0,.2.2-.7,0-1.4-.2-2-.3-2.1-.3-4.2-.5-6.3-.5-1.9,0-3.7.6-5.6,1.2-1.4.4-2.6,1-3.8,1.8-1.1.7-2.2,1.2-3.3,1.9-.5.3-1,.7-1.5,1.1-.4.3-.8.6-1.2.8-.6.4-1.3.8-1.9,1.2-.3.2-.8.2-1.1.3-.2,0-.3,0-.5,0,.1.4.3.7.7.6.3,0,.6,0,.8-.1,1.3-.4,2.2-1.5,3.3-2.2,1-.6,2-1.3,3-1.9.8-.5,1.7-1,2.6-1.3,1.1-.4,2.3-.8,3.4-1.1,2-.5,4.1-.8,6.2-.7,2,0,4,.3,6,.8,1.3.3,2.5.8,3.7,1.3,1,.4,1.9.7,2.9,1.1.9.4,1.8,1,2.7,1.5,1,.6,2.1,1.3,3.1,1.9.9.6,1.8,1.3,2.8,1.9,1.3.8,2.6,1.7,4.1,2.2,1.1.4,2.2.9,3.3,1.3,1.6.5,3.2.8,4.8.4,1-.2,1.9-.5,2.8-1,.8-.5,1.5-1.2,2.3-1.8.3-.2.6-.4.9-.7-.4-.2-.8,0-1.1.2-.7.4-1.4.9-2,1.4-.2.2-.5.3-.8.3.5-.4,1-.8,1.5-1.2,0,0,0-.1-.1-.2-.5.2-.9.4-1.4.6-2.5,1.6-5.2,1.4-7.9.7-.6-.2-1.2-.5-1.8-.9-.1,0-.1-.3-.2-.5.2,0,.4,0,.5,0,1.7.9,3.5,1.3,5.4,1.4,1,0,1.8-.4,2.7-.8.3-.2.6-.5,1.1-.3,0,0,.2,0,.3-.1.6-.2,1.2-.4,1.8-.7.2,0,.4-.3.6-.4-.2-.2-.5-.5-.7-.5-.4,0-.8.3-1.2.4Z"/>
    <path class="cls-1" d="M124.7,168.4c.1,0,.3.1.4.2.5.5,1,1.1,1.5,1.6.4.4.8.8,1.2,1.2.6.6,1.2,1.2,1.9,1.6,1.2.7,2.5,1.4,3.8,2,.2.1.5,0,.8,0,.8,0,1.6,0,2.5-.1-.6-1.1-1.1-2.2-1.7-3.4.2,0,.3.1.5.2,0-.9-.2-1.8-.5-2.6,0,0,.2,0,.2.2.7,1.1,1.3,2.2,2,3.3.6.9,1.2,1.7,1.9,2.5.5.6,1.2,1.2,2.2.9,0,0,0,.1,0,.2-.4,0-.8.2-1.2.3-1.6.1-3.2,0-4.8-.5-1.1-.4-2.2-.7-3.2-1.2-.9-.4-1.7-1.1-2.5-1.6-1.8-1-3.1-2.5-4.5-4-.2-.2-.4-.5-.6-.7,0,0,0,0,0-.1Z"/>
    <path class="cls-1" d="M109.4,76.7c-.4,0-.9-.1-1.3-.1-1.5,0-2.9-.1-4.4,0-.8,0-1.6.3-2.3.5-.9.3-1.8.6-2.7,1-.7.3-1.3.7-1.8,1.2-.9.7-1.7,1.4-2.5,2.2-1.4,1.5-2.8,3-3.6,4.9-.7,1.6-1.2,3.2-1.6,4.9-.4,1.4-.6,2.8-.8,4.2-.3,2.1,0,4.1.6,6.1.4,1.1.7,2.3,1.1,3.4.4.8.9,1.7,1.4,2.4,1.2,1.6,2.7,2.9,4.3,4.1.3.3.7.5,1,.7,0,0,0,0,0,.1-.5-.3-1-.6-1.5-.9-1.4-1-2.7-2.2-3.7-3.6-.6-.9-1.4-1.7-1.8-2.7-.5-1.1-.9-2.4-1.2-3.6-.3-1.1-.4-2.2-.5-3.3,0-1.2,0-2.5.2-3.7.1-1.1.3-2.1.5-3.2.4-1.8,1-3.5,1.7-5.1.5-1.1,1.1-2.1,1.9-3,.9-1.1,1.8-2.2,2.7-3.2.5-.6,1.2-1,1.9-1.5,1.4-1,3-1.6,4.7-1.9,1.4-.3,2.8-.5,4.3-.5,1.2,0,2.3.3,3.5.4,0,0,0,.2,0,.2Z"/>
    <path class="cls-1" d="M113.6,112.2c.2-.1.5-.3.7-.4.8-.4,1.7-.8,2.5-1.2,1.2-.7,2.3-1.6,3.1-2.7,1.5-1.9,2.2-4.1,2.8-6.3.1-.4.2-.8.2-1.2,0-1.4,0-2.7.1-4.1,0-1.9-.4-3.6-.9-5.4-.1-.4-.2-.8-.3-1.2-.3-1.4-1.1-2.5-1.7-3.8-.2-.4-.5-.7-.8-1,0,0-.2-.1-.3-.2-.9-1-1.8-1.9-2.7-2.9-.1-.1-.2-.2-.3-.4,0,0,0,0,.1-.1.3.3.6.5.9.8.8.6,1.6,1.2,2.3,1.9.5.5.8,1.1,1.1,1.6.5,1,1,2,1.4,3.1.6,1.7,1.2,3.4,1.2,5.2,0,1.8.2,3.7.1,5.5,0,2-.6,3.9-1.4,5.7-.6,1.3-1.3,2.5-2.2,3.5-1.1,1.2-2.4,2.1-3.9,2.8-.6.2-1.1.5-1.7.7,0,0-.2,0-.3,0,0,0,0,0,0-.1Z"/>
    <path class="cls-1" d="M102.6,147c-.3-.3-.6-.6-.9-.8-.3-.2-.7-.3-1-.5-.3-.1-.5-.2-.8-.3-.3-.1-.7-.3-1.1-.4-.3,0-.5-.2-.8-.3-.8-.3-1.7,0-2.5.1-.6.1-1.1.3-1.7.4-1,.2-1.5.9-2,1.6-.5.7-1.1,1.4-1.4,2.2-.5,1.3-1.1,2.7-.9,4.1,0,.7.6,1.3.8,1.9.3,1.3,1.5,1.7,2.3,2.5.4.4.9.6,1.4.8.3.1.5.4.7.6,0,0,0,0,0,.1-.4-.2-.8-.3-1.2-.5-1.6-.8-2.9-2.1-3.8-3.6-.4-.7-.5-1.6-.5-2.4,0-1.7.7-3.2,1.5-4.6.4-.8.9-1.7,1.6-2.3.9-.9,2-1.3,3.3-1.5,1.4-.2,2.8.1,4.1.6,1,.4,2,.9,2.8,1.7.1.1.2.3.3.4,0,0,0,0,0,.1,0,0,0,0,0,0Z"/>
    <path class="cls-1" d="M143.5,122.5c0,1.1-.9,2.2-1.9,2.1-.9,0-1.8-1.2-1.8-2.3,0-1,1-2,2.1-2,.9,0,1.5.9,1.5,2.1Z"/>
    <path class="cls-1" d="M85.4,146.3c0-.9.3-1.6,1-2.1.6-.4,1.3-.4,1.9,0,.6.4,1,1,.9,1.7,0,1-.7,1.8-1.4,2.4-.6.5-1.6.2-2-.5-.3-.5-.4-1-.6-1.5,0,0,0,0,.1,0ZM88.7,146.6c0-.6-.4-1-.9-1.2-.1,0-.3,0-.5,0,0,.2,0,.4,0,.5.3.4.4.7.2,1.2,0,0,0,.2,0,.3,0,.4.2.5.5.3.3-.3.4-.6.6-1Z"/>
    <path class="cls-1" d="M93.5,161.2c1.8.4,3.6.8,5.5.5,1.9-.3,3.5-1.2,4.9-2.6,0,.1,0,.3,0,.3-.4.5-.6,1.2-1.3,1.5-1.1.6-2.3,1-3.5,1.2-1,.2-2,.3-2.9.2-.8,0-1.6-.5-2.5-.7-.1,0-.2-.2-.4-.3,0,0,0-.1,0-.2Z"/>
    <path class="cls-1" d="M138.9,129.6c0,.9-.4,1.5-1.1,1.8-.7.3-1.4.3-2-.3-.1-.1-.3-.3-.3-.5-.4-1.6.4-2.6,1.9-3,.6-.2,1.2.3,1.3.9,0,.3.1.7.2,1ZM137.5,128.3c-.8,0-1,.1-1.3.7-.2.6,0,.9.5,1.4,0,0,.2.1.2.2.2.3.5.4.8.3.3-.1.5-.4.5-.8,0-.3,0-.6,0-.9,0-.8,0-.9-.8-.9Z"/>
    <path class="cls-1" d="M142.5,169.8c.1.1.3.2.3.4.4.8,1,1.4,1.2,2.3.1.4.3.8.6,1.2.5.9.4,1.3-.4,1.7-.3.2-.6.2-1.1.4.3-2.1-.2-4-.8-5.9h.1Z"/>
    <path class="cls-1" d="M119.7,151.6c0,.4,0,.9,0,1.3,0,1.3,0,2.7.1,4,0,.6.3,1.2.5,1.8.4,1.7,1,3.4,1.6,5,.2.5.5.8.8,1.3.2.4.4.8.5,1.2-1-.7-2.9-5-3.3-7-.5-2.6-.8-5.1-.2-7.7Z"/>
    <path class="cls-1" d="M147.6,166.3c0-.6-.1-1.2-.3-1.8-.2-1.1-.5-2.3-.8-3.4,0-.4-.3-.8-.3-1.2,0-.9-.4-1.7-.8-2.4-.3-.7-.6-1.5-.8-2.2,1.6,1.8,3.6,9.5,3,11.1Z"/>
    <path class="cls-1" d="M146.9,171.7c-.5-1.3-1-2.6-1.6-3.9-.6-1.2-1.4-2.4-2-3.6,0,0,0,0,.1,0,.3.5.7.9,1,1.4.8,1.1,1.6,2.3,2.2,3.5.3.6.9,1.2.6,2,0,.2-.2.5-.3.7Z"/>
    <path class="cls-1" d="M104.1,154.7c0-1.3,0-2.4,0-3.6,0-1.1-.2-2.3-.8-3.3,1.4,1.5,1.8,5,.8,6.9Z"/>
    <path class="cls-1" d="M115,134.1c1.1-.5,1.5-1,1.3-1.6-.2-.6-.9-1.1-1.4-.9-.6.2-.8,1-.6,2.1-.5-.3-.6-.8-.3-1.6.2-.6,1-1,1.6-.8.7.2,1,.6.9,1.5,0,.8-.7,1.4-1.5,1.4Z"/>
    <path class="cls-1" d="M60,80.2c0-.2,0-.4.2-.7.8,1.2,1.2,2.4,1.3,3.7-.5-1.3-1.1-2.5-2.3-3.3,0,0,0,0,0,0,.2.1.5.3.8.4Z"/>
    <path class="cls-1" d="M64.8,169.1c-.9,0-1.1-.7-1.6-1.1.7,0,1.4.4,1.6,1.1Z"/>
    <path class="cls-1" d="M42.7,115.8c.7-.8,1.3-1,1.7-.3-.6.1-1.1.2-1.7.3Z"/>
    <path class="cls-1" d="M103.3,156.3c-.4.5-.8,1-1.2,1.4,0,0,0,0-.1,0,.4-.5.8-1,1.2-1.4,0,0,0,0,.1,0Z"/>
    <path class="cls-1" d="M97.5,159.5c-.5,0-.9-.1-1.4-.2,0,0,0,0,0-.1.5,0,.9,0,1.4.1,0,0,0,.1,0,.2Z"/>
    <path class="cls-1" d="M74.8,112.6c-.4,0-.7-.2-1.1-.3,0,0,0-.1,0-.2.4,0,.7.1,1.1.2v.2Z"/>
    <path class="cls-1" d="M197.9,196.5c-.2,0-.4,0-.7,0-.2,0-.4,0-.6-.1-.2,0-.4-.1-.5-.2,0,.2,0,.4,0,.6,0,0,0,.1,0,.3-.2-.1-.3-.2-.4-.3-.3-.2-.6-.5-1-.5-.4,0-.5-.4-.4-.8,0-.1,0-.3-.1-.5,0-.1-.2-.3-.3-.4-.2-.3-.5-.6-.7-1,0,0-.2-.1-.2-.2,0-.8-.8-1-1.2-1.6-.1-.2-.2-.4-.4-.6,0,0,0-.2-.1-.2-.3-.5-.7-.9-1-1.4,0-.1,0-.4-.1-.6.2,0,.4,0,.5,0,.8.3,1.6.3,2.3.8.6.5,1.1.9,1.7,1.4.5.3,1,.6,1.4.9.3.2.5.3.8.5.5.2,1.1.5,1.6.7,0,0,.2,0,.3.1.6.7,1.6.8,2.4,1.1,1.3.5,2.7,1,4,1.5,0,0,.2,0,.3.2-.1,0-.3,0-.4,0-1.1-.4-2.2-.7-3.3-1.1-.1,0-.2-.1-.3-.1-.8.1-1.4-.4-2-.8-.6-.3-1.1-.5-1.7-.1-.4.2-.4.5-.3.8,0,.3,0,.6.5.6.4,0,.4.6,0,.9,0,0,0,0,0-.1Z"/>
    <path class="cls-1" d="M209.5,195.8c-1-.2-2-.5-2.9-.8-.2,0-.5-.2-.8-.3.2,0,.3,0,.4,0,.7,0,1.4,0,2.1,0,.4,0,.7.2.8.6,0,.2.3.4.4.6,0,0,0,0,0,0Z"/>
    <path class="cls-1" d="M198,182.5c.2,0,.3,0,.5.1,1.1.4,2.3.8,3.4,1.3.4.2.8.6,1.2.8v.2c-1.8-.8-3.5-1.6-5.2-2.4,0,0,0,0,0,0Z"/>
    <path class="cls-1" d="M209.5,197.9c0,0-.2,0-.3,0-.4-.3-.9-.4-1.5-.4-.4,0-.7-.3-.9-.7,0,0,0-.1,0-.2.9.3,1.7.7,2.6,1,0,0,0,.1,0,.2Z"/>
    <path class="cls-1" d="M174.4,179c-.1-.5-.3-1-.4-1.6,0,0,.1,0,.2,0,.2.5.3,1,.5,1.6,0,0-.1,0-.2,0Z"/>
    <path class="cls-1" d="M209.1,201.1c0,.2-.1.3-.2.4,0,0-.2,0-.3-.1l.3-.5c0,0,.1,0,.2.1Z"/>
    <path class="cls-1" d="M131.7,65.9c.4-.3.8-.6,1.2-.9.2-.1.5-.2.7-.1-.6.4-1.3.8-1.9,1.2,0,0,0,0,0-.1Z"/>
    <path class="cls-1" d="M138.2,47.9c-.8.1-1.6.3-2.5.4,0,0,0-.1,0-.2.8-.1,1.7-.3,2.5-.4,0,0,0,.1,0,.2Z"/>
    <path class="cls-1" d="M200.4,119.5c-1.4.9-2.8,1.7-4.2,2.6.3-.5,3.3-2.5,4.2-2.6Z"/>
  </g>
</svg>