<?xml version="1.0" encoding="UTF-8"?>
<svg id="ic_piv" data-name="ic piv" xmlns="http://www.w3.org/2000/svg" version="1.1" viewBox="0 0 24 24">
  <g id="Group_8935" data-name="Group 8935">
    <g id="Group_8934" data-name="Group 8934">
      <path id="Path_18928" data-name="Path 18928" d="M12,2C6.5,2,2,6.5,2,12s4.5,10,10,10,10-4.5,10-10S17.5,2,12,2ZM12,21.2c-5.1,0-9.2-4.1-9.2-9.2S6.9,2.8,12,2.8s9.2,4.1,9.2,9.2-4.1,9.2-9.2,9.2h0Z" fill="#4b687d" stroke-width="0"/>
      <path d="M12,3.5C7.3,3.5,3.5,7.3,3.5,12s3.8,8.5,8.5,8.5,8.5-3.8,8.5-8.5S16.7,3.5,12,3.5ZM15.7,16.5c-.6.7-1.3,1-2.2,1s-.8,0-1.5,0c-.7,0-1.2,0-1.5,0s-.6,0-1.1,0c-.5,0-.8,0-1.1,0s-.2,0-.2-.2c0-.6,0-1.4,0-2.5,0-1.1,0-2,0-2.5s0-1.5,0-2.7c0-1.2,0-2.1,0-2.7s0-.2.2-.2c.5,0,1.2,0,2.1,0,.9,0,1.6,0,2.1,0,1.1,0,1.9.2,2.6.6.8.5,1.2,1.2,1.2,2.3s-.1.7-.3,1.1c-.2.4-.5.7-.8.9-.1.1-.2.2-.2.2s0,0,.2.2c.4.2.7.5.9,1,.2.4.4.9.4,1.3,0,.9-.3,1.7-.8,2.3Z" fill="#4b687d" stroke-width="0"/>
      <path d="M10.1,10.9c0-.1,0-.3,0-.5v-.5c0-.2,0-.4,0-.8,0-.3,0-.6,0-.8s.4-.2,1.3-.2,1.5,0,1.9.2c.6.2,1,.7,1,1.5s-.8,1.4-2.5,1.4-1.7,0-1.7-.2Z" fill="#4b687d" stroke-width="0"/>
      <path d="M14.6,14.2c0,.7-.2,1.2-.7,1.5-.3.2-.9.3-1.8.3s-1.1,0-1.5,0c-.3,0-.5,0-.5-.1,0-.2,0-.5,0-.9s0-.7,0-.8v-1.3c0-.1.6-.2,1.9-.2s1.3,0,1.7.2c.6.2.8.6.8,1.3Z" fill="#4b687d" stroke-width="0"/>
    </g>
  </g>
  <path id="Rectangle_4543" data-name="Rectangle 4543" d="M0,0h24v24H0V0Z" fill="none" stroke-width="0"/>
</svg>